<?xml version="1.0" encoding="UTF-8"?>
<svg id="Layer_1" xmlns="http://www.w3.org/2000/svg" version="1.1" xmlns:xlink="http://www.w3.org/1999/xlink" viewBox="0 0 2000 2000">
  <!-- Generator: Adobe Illustrator 29.4.0, SVG Export Plug-In . SVG Version: 2.1.0 Build 152)  -->
  <defs>
    <style>
      .st0 {
        fill: #193574;
      }

      .st1, .st2 {
        fill: #fff;
      }

      .st3 {
        fill: url(#linear-gradient1);
      }

      .st4 {
        fill: #e0bf00;
      }

      .st5 {
        fill: #c00;
      }

      .st6, .st2 {
        isolation: isolate;
      }

      .st7 {
        fill: #2f9300;
      }

      .st2 {
        font-family: PoplarStd, 'Poplar Std';
        font-size: 242.2px;
        letter-spacing: 0em;
      }

      .st8 {
        fill: url(#linear-gradient);
      }
    </style>
    <linearGradient id="linear-gradient" x1="252.5" y1="1490" x2="313.7" y2="1536.7" gradientTransform="translate(-412 1672.3) rotate(12.3) scale(1 -1)" gradientUnits="userSpaceOnUse">
      <stop offset="0" stop-color="#193574"/>
      <stop offset=".6" stop-color="#0059be"/>
      <stop offset=".7" stop-color="#003dd4"/>
      <stop offset=".9" stop-color="#193574"/>
    </linearGradient>
    <linearGradient id="linear-gradient1" x1="58.9" y1="1710.4" x2="101.1" y2="1710.4" gradientTransform="translate(-412 1672.3) rotate(12.3) scale(1 -1)" gradientUnits="userSpaceOnUse">
      <stop offset="0" stop-color="#193574"/>
      <stop offset="1" stop-color="#003dd4"/>
    </linearGradient>
  </defs>
  <g>
    <g>
      <path class="st0" d="M796,285.8c-2.7-3-6.5-5.3-11.6-6.9v-.5c9.9-4.1,14.8-10.3,14.8-18.5s-.6-5.7-1.9-7.9-3-3.9-5.3-5.1c-2.5-1.3-5.5-2.3-8.9-2.8-2.6-.4-5.9-.6-10-.6h-35.7v3.6c1.4.4,2.5.8,3.2,1.2.8.5,1.4,1,1.7,1.8,0,0,0,0,0,0h17.7c2.4-.2,4.8-.3,7.4-.3s5.9.4,8,1.1,3.8,2,5,3.8c1.2,1.8,1.7,4.1,1.7,7.2s-.5,6.1-1.6,8c-1.1,1.9-2.6,3.4-4.7,4.5-2.1,1.1-4.9,1.6-8.5,1.6h-7.2v6.4h7.5c2.7,0,5,.3,6.8.8,1.8.5,3.4,1.4,4.7,2.5,1.3,1.1,2.3,2.6,2.9,4.5.7,1.9,1,4.1,1,6.7,0,3.7-.6,6.6-1.9,8.7s-3,3.6-5.2,4.5c-2.2.8-5.1,1.3-8.5,1.3s-5.3,0-7.4-.2h0s-17.7,0-17.7,0c0,0,0,0,0,0-.4.7-1,1.3-1.7,1.7-.8.4-1.8.8-3.2,1.2v3.6h33.5c5.2,0,9.5-.4,12.8-1.2,3.4-.8,6.3-2.1,8.8-3.8,2.5-1.7,4.3-3.9,5.6-6.6s1.8-5.8,1.8-9.5-1.3-7.9-4-10.9h0Z"/>
      <g id="Layer_1-2">
        <path class="st0" d="M758.6,314.7c-.5-3.4-1.6-5.8-3.2-8-1.1-1.5-2.5-2.9-4.1-4.4l.8-.7h0c.5-.5,1.1-1,1.6-1.5h0c1.7,1.5,3.1,3,4.3,4.6,1.9,2.6,3.2,5.5,3.8,9.5l-3.3.5h0ZM743.4,307.8h10.6l1.7,2.6h-13.7c-.6,1.3-1,2.7-1.2,4.2l-3.3-.4c1.1-7.7,6-12.2,11-16.7.6-.5,1.1-1,1.6-1.4,2-1.8,3.8-3.6,5.3-5.7h-9.4l-1.7-2.6h12.7c.8-1.7,1.4-3.6,1.6-5.7h-17.8c.1,3.4,1.3,6,3,8.4,1.2,1.6,2.7,3.1,4.3,4.6l-1,.9c0,0-.1,0-.2.1-.5.4-.9.8-1.4,1.2-1.7-1.5-3.2-3.1-4.5-4.9-2.1-2.9-3.6-6.3-3.7-10.5-.1-4.6,1-8.2,2.9-11.3,1.5-2.4,3.4-4.5,5.4-6.5.5.4,1,.9,1.5,1.3.3.3.7.6,1,.9-1.5,1.5-3,3-4.2,4.7h9.7l1.7,2.6h-12.9c-.8,1.7-1.4,3.7-1.6,5.9h17.8c-.1-3.4-1.3-6.2-3-8.5-1.8-2.5-4.4-4.7-7-7-3-2.6-5.4-4.7-7.2-7.3-1.9-2.6-3.2-5.5-3.8-9.5l3.3-.5c.5,3.4,1.6,5.8,3.2,8,1.7,2.3,3.9,4.3,6.7,6.7,2.8,2.4,5.5,4.8,7.5,7.6,2.1,2.9,3.6,6.3,3.7,10.5.1,4.6-1,8.2-2.9,11.3-1.8,3-4.2,5.5-6.8,7.8-.6.6-1.1,1-1.6,1.5-2.7,2.4-5.4,4.9-7.4,7.9h0ZM756,253.7h-10.2l-1.7-2.6h13.4c.6-1.4,1.1-2.9,1.3-4.5l3.3.4c-.9,6.3-4.3,10.4-8.2,14.1-.5-.5-1.1-1-1.6-1.4-.3-.3-.6-.5-.9-.8,1.7-1.6,3.4-3.4,4.7-5.3h0Z"/>
      </g>
    </g>
    <g>
      <path class="st7" d="M542.7,281.1c0-22.2,14.3-37,30.4-37s30.3,14.3,30.3,36.7-14.3,37-30.3,37-30.4-14.3-30.4-36.7ZM591.7,281c0-26.4-7.7-35-18.9-35s-18.1,8.7-18.1,34.9,7.6,35,18.9,35,18.1-8.7,18.1-34.9h0Z"/>
      <path class="st5" d="M644.3,289.1h-21.2l-3.1,8.8c-4,11.9-2.5,15.3,5.7,16.8v1.3h-21v-1.3c5.9-1.8,9.2-5.7,12.9-16.6l19.1-54.3h3.8l20.1,61.3c2.2,6.9,3.6,8.6,10.5,9.7v1.3h-29.5v-1.3c8.5-.5,9.8-2.6,8-8.3l-5.4-17.3h0ZM643.7,287.1l-9.3-29.7h-.4l-10.2,29.7h19.9Z"/>
      <path class="st4" d="M674,282c0-22.3,14.6-37.9,32.8-37.9s11.9,1.7,16.2,4.1l4-4.7h.9v24.5h-1.2c-4.9-14.2-11.4-22-21-22s-19.8,10.8-19.8,34.9,11.2,33.1,22.1,33.1,17.5-7.3,21.5-16.9l1.5.9c-3.9,9.9-11.8,19.9-26.2,19.9s-30.7-14-30.7-35.8h0Z"/>
    </g>
  </g>
  <g id="Lint_Roller_Dark_Blue">
    <g>
      <path class="st8" d="M237.6,310c-18.8-49.2-65.5-99.9-75.2-110-.9-.9-1.9-1.9-2.8-2.8-13.8-12.9-6-38.9-6-38.9l-48.6,31.4c26.5,1.5,32.2,20.2,32.2,20.2,15.3,43.2,49.6,90.4,60.7,105.1,3.6,4.7,7.6,9.2,12,13.2,9.9,9.1,16.9,12,21.4,12.6,3.9.6,7.6-1.5,9-4.9,4.1-9.9-2.8-25.9-2.8-25.9h0ZM233.9,335.6c-3,1.8-8-.7-11.3-5.4-3.3-4.8-3.6-10.1-.6-11.8,3-1.8,8,.7,11.3,5.4,3.3,4.8,3.6,10.1.6,11.8Z"/>
      <path class="st3" d="M4.7,34s-1.7-3.7,3.3-7.1c0,0,23.3-16.4,39.5-25,0,0,3.6-1.5,6.5.4L4.7,34Z"/>
    </g>
    <path class="st1" d="M57.4.5L1.3,36.4s-2.2,1.5-.8,3.5l97.7,151.3c.2.2.3.5.4.7.2.4,1,1.3,3.1,0,.3-.2.7-.4,1-.6,5.3-2.9,42.8-23.8,54.1-34.9.4-.4.8-.7,1.2-1,.5-.4,1-1.1.1-2.6L61.9,1.8c-.3-.5-.8-.9-1.3-1.3-.8-.5-1.9-.8-3.2,0h0Z"/>
  </g>
  <g class="st6">
    <text class="st2" transform="translate(241.6 213.9) scale(1.1 1)"><tspan x="0" y="0">scLint</tspan></text>
  </g>
</svg>