<?xml version="1.0" encoding="UTF-8"?>
<svg id="Layer_1" data-name="Layer 1" xmlns="http://www.w3.org/2000/svg" xmlns:xlink="http://www.w3.org/1999/xlink" viewBox="0 0 1667.68 689.97" width="100%" height="auto" preserveAspectRatio="xMinYMin meet">
  <defs>
    <style>
      .cls-1 {
        fill: #193574;
      }

      .cls-2 {
        fill: url(#linear-gradient-2);
      }

      .cls-3, .cls-4 {
        fill: #fff;
      }

      .cls-4 {
        font-family: PoplarStd, 'Poplar Std';
        font-size: 419px;
        letter-spacing: .01em;
      }

      .cls-5 {
        fill: #e0bf00;
      }

      .cls-6 {
        fill: #c00;
      }

      .cls-7 {
        fill: #2f9300;
      }

      .cls-8 {
        fill: url(#linear-gradient);
      }
    </style>
    <linearGradient id="linear-gradient" x1="462.04" y1="747.28" x2="585.98" y2="652.77" gradientTransform="translate(12.35 -282.15) rotate(12.25)" gradientUnits="userSpaceOnUse">
      <stop offset="0" stop-color="#193574"/>
      <stop offset=".55" stop-color="#0059be"/>
      <stop offset=".66" stop-color="#003dd4"/>
      <stop offset=".88" stop-color="#193574"/>
    </linearGradient>
    <linearGradient id="linear-gradient-2" x1="70.22" y1="301.22" x2="155.61" y2="301.22" gradientTransform="translate(12.35 -282.15) rotate(12.25)" gradientUnits="userSpaceOnUse">
      <stop offset="0" stop-color="#193574"/>
      <stop offset="1" stop-color="#003dd4"/>
    </linearGradient>
  </defs>
  <g>
    <g>
      <path class="cls-1" d="M1610.94,578.38c-5.4-6.13-13.24-10.82-23.52-14.05v-.99c19.98-8.3,29.97-20.75,29.97-37.35,0-6.17-1.29-11.49-3.86-15.97-2.57-4.48-6.13-7.93-10.69-10.36-5.07-2.72-11.06-4.63-17.96-5.73-5.21-.81-11.93-1.21-20.16-1.21h-72.17v7.27c2.79.73,4.98,1.56,6.56,2.48,1.58.92,2.75,2.11,3.53,3.58.02.03.03.07.05.1h35.89c4.82-.36,9.79-.54,14.91-.54,6.46,0,11.86.77,16.19,2.32s7.68,4.09,10.03,7.66c2.35,3.56,3.53,8.39,3.53,14.49,0,6.9-1.09,12.32-3.25,16.25-2.17,3.93-5.35,6.96-9.53,9.09-4.19,2.13-9.95,3.19-17.3,3.19h-14.57v12.89h15.24c5.51,0,10.1.53,13.77,1.6,3.67,1.07,6.83,2.76,9.48,5.07,2.64,2.32,4.63,5.36,5.95,9.15,1.32,3.78,1.98,8.32,1.98,13.6,0,7.49-1.25,13.39-3.75,17.69s-6.01,7.31-10.52,9.03c-4.52,1.72-10.27,2.59-17.24,2.59-5.66,0-10.65-.11-14.98-.33v-.06h-35.92s-.04.08-.06.12c-.77,1.51-1.95,2.68-3.53,3.53-1.58.85-3.73,1.63-6.44,2.37v7.27h67.87c10.5,0,19.15-.81,25.95-2.42,6.79-1.62,12.7-4.17,17.74-7.66,5.03-3.49,8.78-7.95,11.24-13.39,2.46-5.44,3.69-11.83,3.69-19.17,0-8.59-2.7-15.96-8.1-22.09Z"/>
      <g id="Layer_1-2" data-name="Layer_1">
        <path class="cls-1" d="M1535.31,636.85c-1.05-6.85-3.22-11.82-6.45-16.22-2.23-3.04-5.02-5.88-8.31-8.9l1.67-1.5h0c1.1-.97,2.19-1.99,3.28-2.97l.1-.09c3.39,3.13,6.3,6.15,8.73,9.46,3.88,5.28,6.46,11.17,7.7,19.22l-6.71,1.01h0ZM1504.53,622.99h21.43s3.4,5.21,3.4,5.21h-27.66c-1.16,2.64-2,5.48-2.43,8.6l-6.71-.9c2.15-15.66,12.22-24.74,22.31-33.84,1.14-1.03,2.28-2.05,3.18-2.88,3.96-3.64,7.76-7.37,10.78-11.59h-19.11l-3.4-5.21h25.66c1.69-3.41,2.87-7.2,3.32-11.57h-35.97c.29,6.78,2.64,12.16,6.13,16.9,2.42,3.29,5.43,6.33,8.7,9.33l-1.94,1.75c-.12.09-.23.19-.33.3-.93.84-1.85,1.67-2.77,2.51-3.36-3.11-6.49-6.31-9.12-9.88-4.34-5.89-7.23-12.65-7.45-21.31-.23-9.24,2.11-16.54,5.85-22.77,2.98-4.95,6.78-9.13,10.86-13.06,1,.89,2.04,1.8,3.11,2.73.67.58,1.34,1.17,2.01,1.75-3.12,2.97-6.05,6.06-8.47,9.46h19.53s3.4,5.21,3.4,5.21h-26.06c-1.72,3.49-2.91,7.39-3.33,11.89h36.02c-.21-6.96-2.59-12.46-6.14-17.29-3.74-5.08-8.88-9.56-14.21-14.2-6.02-5.23-10.9-9.61-14.65-14.72-3.87-5.27-6.46-11.17-7.7-19.22l6.71-1c1.05,6.85,3.22,11.82,6.45,16.22,3.35,4.56,7.94,8.67,13.62,13.61,5.64,4.9,11.07,9.63,15.25,15.31,4.34,5.89,7.23,12.65,7.45,21.31.23,9.24-2.11,16.54-5.85,22.77-3.67,6.1-8.6,11.04-13.75,15.77-1.22,1.12-2.23,2.03-3.24,2.94-5.49,4.95-10.97,9.9-14.88,15.9h0ZM1529.94,513.54h-20.7s-3.4-5.21-3.4-5.21h27.03c1.27-2.77,2.19-5.78,2.65-9.11l6.71.9c-1.75,12.68-8.68,21.05-16.61,28.6-1.1-.97-2.2-1.93-3.32-2.9-.62-.53-1.22-1.06-1.81-1.58,3.51-3.33,6.81-6.8,9.45-10.72h0Z"/>
      </g>
    </g>
    <g>
      <path class="cls-7" d="M1098.43,568.83c0-44.88,28.89-74.86,61.6-74.86s61.42,28.97,61.42,74.25-28.89,74.86-61.42,74.86-61.6-28.97-61.6-74.25ZM1197.47,568.63c0-53.44-15.63-70.78-38.34-70.78s-36.53,17.54-36.53,70.58,15.45,70.78,38.16,70.78,36.71-17.54,36.71-70.58Z"/>
      <path class="cls-6" d="M1303.96,585.15h-42.89l-6.18,17.75c-8.18,24.07-5.09,31.01,11.45,34.06v2.65h-42.52v-2.65c11.99-3.67,18.54-11.63,26.17-33.66l38.71-109.95h7.63l40.71,124.02c4.54,13.87,7.27,17.34,21.26,19.58v2.65h-59.61v-2.65c17.26-1.02,19.81-5.3,16.17-16.73l-10.9-35.08ZM1302.69,581.07l-18.9-60.17h-.73l-20.72,60.17h40.34Z"/>
      <path class="cls-5" d="M1364.11,570.67c0-45.08,29.62-76.7,66.33-76.7,13.27,0,24.17,3.47,32.71,8.36l8-9.59h1.82v49.57h-2.36c-9.99-28.76-23.08-44.47-42.52-44.47-21.63,0-39.98,21.83-39.98,70.58s22.72,66.91,44.7,66.91,35.44-14.69,43.43-34.27l3.09,1.84c-7.81,19.99-23.81,40.18-53.06,40.18-37.25,0-62.15-28.35-62.15-72.41Z"/>
    </g>
  </g>
  <g id="Lint_Roller_Dark_Blue" data-name="Lint Roller Dark Blue">
    <g>
      <path class="cls-8" d="M480.81,627.41c-38.04-99.62-132.5-202.08-152.12-222.71-1.83-1.92-3.75-3.76-5.7-5.57-28-26.02-12.15-78.69-12.15-78.69l-98.39,63.49c53.56,2.96,65.17,40.79,65.17,40.79,30.96,87.49,100.32,182.89,122.94,212.71,7.26,9.57,15.35,18.55,24.26,26.79,19.96,18.46,34.16,24.28,43.27,25.57,7.94,1.12,15.44-3.01,18.29-9.98,8.24-20.13-5.57-52.4-5.57-52.4ZM473.41,679.27c-5.99,3.58-16.25-1.35-22.92-11.01-6.67-9.66-7.22-20.4-1.23-23.98,5.99-3.58,16.25,1.35,22.92,11.01,6.67,9.66,7.22,20.4,1.23,23.98Z"/>
      <path class="cls-2" d="M9.49,68.79s-3.5-7.41,6.7-14.39c0,0,47.09-33.23,80.01-50.62,0,0,7.3-3.02,13.12.8L9.49,68.79Z"/>
    </g>
    <path class="cls-3" d="M116.24.97L2.55,73.67s-4.51,3.11-1.54,7.08l197.81,306.14c.31.48.6.98.89,1.48.49.84,2.08,2.56,6.31-.12.69-.43,1.38-.86,2.09-1.25,10.74-5.92,86.62-48.07,109.4-70.66.78-.77,1.64-1.45,2.52-2.09.97-.71,2.08-2.27.29-5.35L125.2,3.6c-.66-1.03-1.52-1.92-2.55-2.57-1.55-.98-3.86-1.7-6.42-.06Z"/>
  </g>
  <text class="cls-4" transform="translate(489.01 432.98) scale(1.34 1.17)"><tspan x="0" y="0">scLint</tspan></text>
</svg>